<svg xmlns="http://www.w3.org/2000/svg" version="1.1" xmlns:xlink="http://www.w3.org/1999/xlink" width="512" height="512" x="0" y="0" viewBox="0 0 64 64" style="enable-background:new 0 0 512 512" xml:space="preserve" class=""><g><path d="M31.15 56.41c.33.44.24 1.07-.2 1.4-.54.41-1.11.79-1.69 1.16C24.97 61.68 20.3 62.99 16 63c-5.51 0-10.39-2.17-13.04-6.36-3.81-6.03-1.87-14.73 4.7-21.16 1.33-1.31 2.85-2.51 4.53-3.58 2.18-1.37 4.47-2.41 6.83-3.09 1.35-.39 2.7-.67 4.03-.81 2.09-.24 4.13-.17 6.06.2 1.08.2 2.16.51 3.18.94 1.11.45 2.16 1.04 3.11 1.76.91.69 1.31 1.8 1.04 2.91-.26 1.09-1.12 1.89-2.23 2.09-.49.1-1 .19-1.51.31-.5.11-1 .23-1.49.37-.6.16-1.17.33-1.74.52-2.02.67-4 1.56-5.89 2.63-.39.28-.94.25-1.29-.11a.996.996 0 0 1 0-1.41c.07-.07.22-.17.31-.22 1.98-1.12 4.09-2.07 6.25-2.79.62-.2 1.22-.38 1.84-.55.51-.14 1.05-.28 1.58-.39.52-.12 1.04-.22 1.57-.32a.77.77 0 0 0 .65-.59.8.8 0 0 0-.31-.84c-.81-.61-1.7-1.12-2.66-1.5-.91-.38-1.84-.65-2.8-.82-1.75-.34-3.58-.4-5.47-.18-1.21.13-2.46.38-3.69.75-2.18.63-4.3 1.59-6.32 2.86a25.39 25.39 0 0 0-4.2 3.32c-5.89 5.77-7.7 13.44-4.41 18.66 4.12 6.53 14.68 7.3 23.54 1.71.54-.33 1.06-.69 1.55-1.06.44-.33 1.07-.24 1.4.2zm8.08-18.58c-.66-.48-1.49-.66-2.27-.49l-.83.19c-.42.1-.86.21-1.16.26-.77.13-1.49.28-2.17.44-6.06 1.4-11.68 4.43-16.24 8.76l-6.3 5.98h-.17a.13.13 0 0 1-.03-.18l1.64-2.31a36.9 36.9 0 0 1 7.93-8.18c.44-.33.53-.96.2-1.4s-.96-.53-1.4-.2a38.855 38.855 0 0 0-8.35 8.62l-1.64 2.31a2.147 2.147 0 0 0 1.74 3.38c.56 0 1.1-.22 1.47-.59l6.3-5.98c4.31-4.08 9.6-6.94 15.33-8.26.65-.16 1.31-.29 2.04-.42.33-.06.83-.18 1.3-.29.29-.07.56-.14.78-.18.24-.05.48 0 .68.15.11.08.31.27.34.6.16 1.59-.01 3.28-.5 5.01-.77 2.79-2.37 5.56-4.61 8-.37.41-.35 1.04.06 1.41s1.04.35 1.41-.06c2.46-2.67 4.21-5.72 5.07-8.82.55-1.96.74-3.89.56-5.73a2.83 2.83 0 0 0-1.15-2.03zm19.43-16.05c-4.85-7.31-12.45-11.5-19.36-10.68-.8.09-1.53.53-1.99 1.19-.47.67-.63 1.5-.44 2.28.05.23.13.54.22.87.11.4.22.83.27 1.11a35.16 35.16 0 0 0 9.62 18.21l6.12 6.16s.03.16.03.17c-.05.07-.13.09-.2.04l-2.35-1.58c-7.47-5.06-12.72-12.4-14.77-20.68l-.06-.24c-.1-.43-.2-.85-.29-1.29a2.745 2.745 0 0 0-1.94-2.12c-.51-.15-1.04-.15-1.52-.02C28.56 5.42 20.36-.5 12.53 1.34 3.94 3.35-.91 14.16 1.73 25.43c.7 2.95 1.82 5.67 3.35 8.09a1.001 1.001 0 0 0 1.38.32c.47-.3.61-.91.31-1.38-1.41-2.22-2.45-4.74-3.09-7.47-2.39-10.21 1.79-19.94 9.3-21.7 6.86-1.61 14.4 4.15 17.36 13.16-.09.13-.17.27-.26.4-.09.15-.19.29-.28.44-.1.17-.19.34-.28.51-.08.15-.17.3-.24.46-.09.18-.17.37-.25.56a9.146 9.146 0 0 0-.42 1.07c-.05.16-.11.31-.16.46-.07.22-.13.44-.19.66-.04.15-.09.3-.12.45-.06.24-.1.48-.15.72-.03.15-.06.29-.09.43-.04.27-.08.54-.11.82-.02.13-.04.25-.05.38-.04.4-.07.81-.08 1.23-.02.55.41 1.02.96 1.03a.977.977 0 0 0 1.03-.96c.1-2.96.94-5.61 2.41-7.65l.11-.12c.21-.21.5-.29.79-.2.17.05.46.19.54.6.09.45.2.89.3 1.34l.06.26c2.17 8.77 7.71 16.53 15.59 21.87l2.35 1.58c.98.66 2.28.42 2.96-.56.23-.34.36-.77.36-1.2 0-.57-.22-1.11-.62-1.5l-6.12-6.16A33.148 33.148 0 0 1 39.3 16.2c-.06-.32-.19-.79-.3-1.25-.08-.3-.15-.58-.2-.81s0-.48.13-.68a.8.8 0 0 1 .59-.35c6.07-.73 13.09 3.21 17.46 9.8 5.78 8.73 5.26 19.31-1.18 23.57-3.54 2.34-8.28 2.38-13.01.09a1.004 1.004 0 1 0-.87 1.81c2.61 1.26 5.25 1.89 7.74 1.89 2.64 0 5.12-.71 7.25-2.12 7.35-4.87 8.14-16.69 1.74-26.35zM13.75 9.23l1.73 2.36c2.95 4.13 5.05 8.85 6.08 13.65.12.54.65.88 1.19.77.54-.12.88-.65.77-1.19-1.08-5.06-3.3-10.04-6.4-14.39l-1.65-2.31c-.33-.47-.82-.78-1.39-.87s-1.13.04-1.59.37c-.56.4-.9 1.05-.9 1.75 0 .32.06.62.19.89l3.61 7.9c1.14 2.5 1.95 5.12 2.43 7.78.09.48.51.82.98.82.06 0 .12 0 .18-.02.54-.1.91-.62.81-1.16-.5-2.82-1.37-5.6-2.57-8.26L13.6 9.37s0-.08.06-.12l.1-.03z" fill="#ffffff" opacity="1" data-original="#000000"></path></g></svg>