<svg xmlns="http://www.w3.org/2000/svg" version="1.1" xmlns:xlink="http://www.w3.org/1999/xlink" width="512" height="512" x="0" y="0" viewBox="0 0 64 64" style="enable-background:new 0 0 512 512" xml:space="preserve" class=""><g><path d="m54.895 6.131-1.789-3.578a1 1 0 0 0-1.342-.447L38.538 8.719A14.99 14.99 0 0 0 34 8h-4c-2.721 0-5.4.751-7.748 2.173a1 1 0 1 0 1.037 1.711A12.955 12.955 0 0 1 30 10h4c.58 0 1.155.051 1.726.128a2.982 2.982 0 0 0-1.621 2.661V22H17.047a12.962 12.962 0 0 1 3.366-7.756 1 1 0 0 0-1.476-1.35A14.95 14.95 0 0 0 15.047 22H14a1 1 0 0 0 0 2h35v2H14a1 1 0 0 0 0 2h1.111l3.896 33.117A1 1 0 0 0 20 62h24a1 1 0 0 0 .993-.883l.94-7.995a1.001 1.001 0 0 0-1.986-.234L43.111 60H20.889l-1.882-16h25.986l-.578 4.915a1.001 1.001 0 0 0 1.986.234L48.889 28H50a1 1 0 0 0 1-1v-4a1 1 0 0 0-1-1h-1.055a14.915 14.915 0 0 0-4.348-9.603l9.85-4.925a1.003 1.003 0 0 0 .448-1.341zM41.462 34.27l1.732 1-1 1.731-1.732-1zm-3.357-2.994a35.12 35.12 0 0 1-2-.03V28h2zm-7.297-.482L27.444 28h6.661v3.106c-.327-.032-.654-.057-.981-.098a38.69 38.69 0 0 0-2.316-.214zm-2.809 1.93-1.738 2.093-2.209-1.835a35.617 35.617 0 0 1 3.947-.258zm-3.719-1.783 1.459-1.757 1.858 1.543a37.503 37.503 0 0 0-3.317.214zM24.123 28l-2.805 3.378a38.326 38.326 0 0 0-3.69.896L17.125 28zm-1.655 14 .999-1.733 1.729 1-.424.733zm9.613 0-.892-.74 2.552-3.072 3.07 2.551L35.761 42zm6.283 0 .625-.75a1 1 0 0 0-.129-1.409l-4.61-3.83a1.003 1.003 0 0 0-1.408.129l-3.83 4.61a1 1 0 0 0-.227.731.988.988 0 0 0 .227.518H27.08l.346-.601a1.001 1.001 0 0 0-.366-1.365l-3.46-2a.997.997 0 0 0-1.366.366l-2 3.47c-.024.043-.026.088-.044.131h-1.419l-.908-7.715a36.509 36.509 0 0 1 3.55-.895l4.339 3.603a.997.997 0 0 0 1.408-.13l3.388-4.079c.775.047 1.551.111 2.328.208 2.296.288 4.595.354 6.886.222l-1.532 2.653a1.005 1.005 0 0 0-.1.759.995.995 0 0 0 .466.607l3.464 2a.997.997 0 0 0 1.366-.366l2-3.464c.132-.229.168-.502.1-.759a.995.995 0 0 0-.466-.607l-2.008-1.159a38.193 38.193 0 0 0 3.323-.633L45.229 42zm8.262-11.879a36.19 36.19 0 0 1-6.52 1.074V28h6.77zM46.945 22h-10.84v-9.211c0-.381.212-.724.553-.895l2.022-1.011c.777.3 1.523.676 2.232 1.12l-2.254 1.127a1 1 0 0 0-.553.895V19a1 1 0 0 0 2 0v-4.357l2.58-1.29A12.926 12.926 0 0 1 46.945 22zm-3.991-11.018a14.883 14.883 0 0 0-1.979-1.247l10.788-5.394.895 1.789z" fill="#ffffff" opacity="1" data-original="#000000" class=""></path><path d="M28.513 48.611c-2.339 2.339-2.657 5.829-.707 7.778.84.84 1.972 1.286 3.235 1.286.203 0 .409-.011.618-.035 1.427-.159 2.821-.854 3.925-1.958 2.339-2.339 2.656-5.829.707-7.778-1.949-1.95-5.439-1.633-7.778.707zm5.657 5.657c-.785.784-1.755 1.276-2.732 1.385a3.22 3.22 0 0 1-.794-.016 6.441 6.441 0 0 0 2.353-3.174 4.37 4.37 0 0 1 2.205-2.543l.077-.038c.644 1.229.228 3.048-1.109 4.386zm-.687-5.619A6.329 6.329 0 0 0 31.1 51.83a4.428 4.428 0 0 1-2.205 2.543l-.077.038c-.644-1.23-.229-3.049 1.109-4.386.925-.925 2.083-1.413 3.115-1.413.151 0 .297.016.441.037z" fill="#ffffff" opacity="1" data-original="#000000" class=""></path></g></svg>