<svg xmlns="http://www.w3.org/2000/svg" version="1.1" xmlns:xlink="http://www.w3.org/1999/xlink" width="512" height="512" x="0" y="0" viewBox="0 0 512 512" style="enable-background:new 0 0 512 512" xml:space="preserve" class=""><g><g data-name="23-drip"><g data-name="linear color"><path d="M432 212h-48.671l-11.835-39.448A12.088 12.088 0 0 0 360 164h-21.44l64.383-143.075A12 12 0 0 0 392 4H120a12 12 0 0 0-10.943 16.925L173.44 164H88a12 12 0 0 0-10.082 18.508l40.689 63.04-55.563 185.211A60 60 0 0 0 120.514 508h270.972a60 60 0 0 0 57.47-77.241l-13.832-46.106L468 360a60.3 60.3 0 0 0 24-48v-40a60.068 60.068 0 0 0-60-60zM138.559 28h234.882l-61.2 136h-17.862l13.428-73.854a12 12 0 1 0-23.614-4.292L269.985 164h-27.858l-13.3-78.017a12 12 0 0 0-23.658 4.034L217.782 164h-18.023zm3.215 209.185L110.028 188h241.043l43.2 144H117.729l25.458-84.859a12 12 0 0 0-1.413-9.956zm278.6 232.3A35.681 35.681 0 0 1 391.486 484H120.514a36 36 0 0 1-34.482-46.345L110.529 356h290.942l24.5 81.655a35.679 35.679 0 0 1-5.602 31.834zM468 312a36.181 36.181 0 0 1-14.4 28.8l-25.823 19.364L390.529 236H432a36.04 36.04 0 0 1 36 36z" fill="#fffefe" opacity="1" data-original="#000000" class=""></path><path d="M256.565 307.479a36.041 36.041 0 0 0 36-36c0-16.563-20.718-40.939-27.068-48.015a12 12 0 0 0-17.863 0c-6.35 7.076-27.069 31.452-27.069 48.015a36.041 36.041 0 0 0 36 36zm0-57.072c6.8 9.057 11.873 17.73 12 21.072a12 12 0 0 1-24 .012c.135-3.361 5.21-12.033 12-21.084z" fill="#fffefe" opacity="1" data-original="#000000" class=""></path></g></g></g></svg>