<svg xmlns="http://www.w3.org/2000/svg" version="1.1" xmlns:xlink="http://www.w3.org/1999/xlink" width="512" height="512" x="0" y="0" viewBox="0 0 682.667 682.667" style="enable-background:new 0 0 512 512" xml:space="preserve" class=""><g><defs><clipPath id="a" clipPathUnits="userSpaceOnUse"><path d="M0 512h512V0H0Z" fill="#ffffff" opacity="1" data-original="#000000"></path></clipPath></defs><g clip-path="url(#a)" transform="matrix(1.33333 0 0 -1.33333 0 682.667)"><path d="m0 0 39.139-6.619C46.894-7.931 53.202-.429 50.575 6.98L39.993 36.82l122.484 101.866c4.963 4.128 4.872 11.66-.033 15.859-12.812 10.971-18.388 28.833-13.109 45.684l9.783 31.224c2.32 7.404-4.057 14.625-11.697 13.242l-21.914-3.965c-20.42-3.695-40.799 4.319-53.307 20.04-3.976 4.998-11.44 5.332-15.745.615l-72.181-79.106L15.603 343.93c1.386 7.155-4.87 13.591-12.026 12.185-26.197-5.146-53.892 7.446-66.496 32.3l-11.187 22.065c-3.826 7.542-14.604 7.542-18.428 0l-12.585-24.82a58.737 58.737 0 0 0-3.951-6.659" style="stroke-width:15;stroke-linecap:round;stroke-linejoin:round;stroke-miterlimit:10;stroke-dasharray:none;stroke-opacity:1" transform="translate(338.339 88.363)" fill="none" stroke="#ffffff" stroke-width="15" stroke-linecap="round" stroke-linejoin="round" stroke-miterlimit="10" stroke-dasharray="none" stroke-opacity="" data-original="#060606" opacity="1" class=""></path><path d="M0 0c-9.19-2.606-19.023-2.971-28.606-.813C-35.861.82-42.407-5.518-40.993-12.814l31.192-160.942h-.001l-70.981 77.791c-4.929 5.401-13.761 4.097-16.916-2.498l-11.666-24.383-63.583 11.506c-7.64 1.383-14.018-5.838-11.698-13.243l21.388-68.265-20.263-8.791c-7.043-3.055-8.391-12.461-2.488-17.369l120.488-100.207-10.582-29.84c-2.626-7.409 3.682-14.911 11.437-13.599l122.459 20.711 41.392-7" style="stroke-width:15;stroke-linecap:round;stroke-linejoin:round;stroke-miterlimit:10;stroke-dasharray:none;stroke-opacity:1" transform="translate(197.226 444.398)" fill="none" stroke="#ffffff" stroke-width="15" stroke-linecap="round" stroke-linejoin="round" stroke-miterlimit="10" stroke-dasharray="none" stroke-opacity="" data-original="#060606" opacity="1" class=""></path><path d="M0 0v-343.259" style="stroke-width:15;stroke-linecap:round;stroke-linejoin:round;stroke-miterlimit:10;stroke-dasharray:none;stroke-opacity:1" transform="translate(255.019 350.759)" fill="none" stroke="#ffffff" stroke-width="15" stroke-linecap="round" stroke-linejoin="round" stroke-miterlimit="10" stroke-dasharray="none" stroke-opacity="" data-original="#060606" opacity="1" class=""></path><path d="m0 0 70.816-58.139 73.789-60.579 75.42 61.917L289.211 0" style="stroke-width:15;stroke-linecap:round;stroke-linejoin:round;stroke-miterlimit:10;stroke-dasharray:none;stroke-opacity:1" transform="translate(111.394 247.849)" fill="none" stroke="#ffffff" stroke-width="15" stroke-linecap="round" stroke-linejoin="round" stroke-miterlimit="10" stroke-dasharray="none" stroke-opacity="" data-original="#060606" opacity="1" class=""></path></g></g></svg>