<svg xmlns="http://www.w3.org/2000/svg" version="1.1" xmlns:xlink="http://www.w3.org/1999/xlink" width="512" height="512" x="0" y="0" viewBox="0 0 496 496" style="enable-background:new 0 0 512 512" xml:space="preserve" class=""><g><path d="M77.6 288H56c-22.4 0-40-17.6-40-40s17.6-40 40-40h144c4.8 0 8-3.2 8-8s-3.2-8-8-8H56c-31.2 0-56 24.8-56 56s24.8 56 56 56h21.6c4.8 0 8-3.2 8-8s-3.2-8-8-8zM132.8 288H116c-4.8 0-8 3.2-8 8s3.2 8 8 8h16.8c4.8 0 8-3.2 8-8s-4-8-8-8zM296 421.6c-4.8 0-8 3.2-8 8V440c0 22.4-17.6 40-40 40s-40-17.6-40-40V296c0-4.8-3.2-8-8-8h-34.4c-4.8 0-8 3.2-8 8s3.2 8 8 8H192v136c0 31.2 24.8 56 56 56s56-24.8 56-56v-10.4c0-4.8-3.2-8-8-8z" fill="#ffffff" opacity="1" data-original="#000000" class=""></path><path d="M440 192H304V56c0-31.2-24.8-56-56-56s-56 24.8-56 56v112.8c0 4.8 3.2 8 8 8s8-3.2 8-8V56c0-22.4 17.6-40 40-40s40 17.6 40 40v144c0 4.8 3.2 8 8 8h144c22.4 0 40 17.6 40 40s-17.6 40-40 40H296c-4.8 0-8 3.2-8 8v92.8c0 4.8 3.2 8 8 8s8-3.2 8-8V304h136c31.2 0 56-24.8 56-56s-24.8-56-56-56z" fill="#ffffff" opacity="1" data-original="#000000" class=""></path><path d="M360 272c4.8 0 8-3.2 8-8s-3.2-8-8-8h-16c-4.8 0-8 3.2-8 8s3.2 8 8 8h16zM434.4 272c16.8 0 30.4-13.6 30.4-30.4 0-4.8-3.2-8-8-8s-8 3.2-8 8c0 8-6.4 14.4-14.4 14.4H392c-4.8 0-8 3.2-8 8s3.2 8 8 8h42.4z" fill="#ffffff" opacity="1" data-original="#000000" class=""></path></g></svg>