<svg xmlns="http://www.w3.org/2000/svg" version="1.1" xmlns:xlink="http://www.w3.org/1999/xlink" width="512" height="512" x="0" y="0" viewBox="0 0 512 512" style="enable-background:new 0 0 512 512" xml:space="preserve" class=""><g><path d="M362 0H150C67.29 0 0 67.29 0 150v212c0 82.71 67.29 150 150 150h212c82.71 0 150-67.29 150-150V150C512 67.29 444.71 0 362 0zm130 362c0 71.682-58.318 130-130 130H150c-71.682 0-130-58.318-130-130V150C20 78.318 78.318 20 150 20h212c71.682 0 130 58.318 130 130v212z" fill="#ffffff" opacity="1" data-original="#000000" class=""></path><path d="M362 44H150C91.551 44 44 91.551 44 150v212c0 58.449 47.551 106 106 106h61c5.523 0 10-4.477 10-10s-4.477-10-10-10h-61c-47.42 0-86-38.58-86-86V150c0-47.42 38.58-86 86-86h212c47.42 0 86 38.58 86 86v212c0 47.42-38.58 86-86 86h-60.333c-5.523 0-10 4.477-10 10s4.477 10 10 10H362c58.449 0 106-47.551 106-106V150c0-58.449-47.551-106-106-106z" fill="#ffffff" opacity="1" data-original="#000000" class=""></path><path d="M263.07 450.93c-1.86-1.86-4.44-2.93-7.07-2.93s-5.21 1.07-7.07 2.93S246 455.37 246 458s1.07 5.21 2.93 7.07S253.37 468 256 468s5.21-1.07 7.07-2.93c1.86-1.86 2.93-4.44 2.93-7.07s-1.07-5.21-2.93-7.07zM175.83 155.71c-3.777-4.03-10.104-4.236-14.135-.461l-.443.417c-4.017 3.79-4.201 10.119-.41 14.136a9.97 9.97 0 0 0 7.275 3.137 9.966 9.966 0 0 0 6.861-2.727l.391-.367c4.03-3.776 4.237-10.105.461-14.135z" fill="#ffffff" opacity="1" data-original="#000000" class=""></path><path d="M256 118c-21.964 0-43.824 5.291-63.217 15.301-4.907 2.533-6.832 8.565-4.299 13.473 2.534 4.907 8.566 6.831 13.473 4.299C218.762 142.398 236.945 138 256 138c65.065 0 118 52.935 118 118s-52.935 118-118 118-118-52.935-118-118c0-20.419 5.295-40.537 15.313-58.178 2.727-4.802 1.045-10.906-3.758-13.634-4.803-2.726-10.906-1.045-13.634 3.758C124.197 208.592 118 232.125 118 256c0 76.093 61.907 138 138 138s138-61.907 138-138-61.907-138-138-138z" fill="#ffffff" opacity="1" data-original="#000000" class=""></path><path d="M256 166c-49.626 0-90 40.374-90 90s40.374 90 90 90 90-40.374 90-90-40.374-90-90-90zm0 160c-38.598 0-70-31.402-70-70s31.402-70 70-70 70 31.402 70 70-31.402 70-70 70zM387.25 86.75c-20.953 0-38 17.047-38 38s17.047 38 38 38 38-17.047 38-38-17.047-38-38-38zm0 56c-9.925 0-18-8.075-18-18s8.075-18 18-18 18 8.075 18 18-8.075 18-18 18z" fill="#ffffff" opacity="1" data-original="#000000" class=""></path></g></svg>