<svg xmlns="http://www.w3.org/2000/svg" version="1.1" xmlns:xlink="http://www.w3.org/1999/xlink" width="512" height="512" x="0" y="0" viewBox="0 0 512 512" style="enable-background:new 0 0 512 512" xml:space="preserve" class=""><g><path d="M463.657 334.967a69.692 69.692 0 0 0 1.331-11.742c.51-14.942-2.559-27.6-9.122-37.614-8.06-12.3-21-20-38.493-22.944 3.075-15.539-.377-29.98-10.154-42.106-12.594-15.621-31.04-17.356-48.057-15.393a73.85 73.85 0 0 0 25.75-56.04 66.926 66.926 0 0 0-19.626-47.877 70.284 70.284 0 0 0-17.333-12.561c-1.919-20.5 7.71-32.339 39.164-49.2a6 6 0 1 0-5.669-10.576c-28.439 15.247-45.476 29.632-45.692 54.808a78.07 78.07 0 0 0-23.17-3.526h-.448c-22.708.13-42.045 8.46-55.923 24.09a76.3 76.3 0 0 0-15.325 27.004c-2.13-9.744-3.573-18.837-4.771-26.409-1.727-10.922-2.869-18.138-5.063-22.31-.769-1.462-3.207-4.728-9.288-3.537-11.416 2.248-43.177 22.085-73.119 53.482-26.548 27.84-59.33 72.894-64.742 129.427-.578 6.036.483 15.89 1.843 21.929a21.728 21.728 0 0 0 2.49 6.275c-.616.053-1.216.1-1.8.131-30.965 1.787-52.127 28.183-54.7 52.67-1.131 10.776 1.247 20.85 6.874 29.13a42 42 0 0 0 3.253 4.168c-7.263 4.573-18.6 12.568-28.109 23.065-7.3 8.051-17.817 33.83-9.078 56.943 4.886 12.914 17.72 29.093 51.11 32.831a776.8 776.8 0 0 0 86.282 5.042q30.387 0 58.6-2.747c29.114-1.073 58.112.6 86.171 2.218 21.778 1.257 43.117 2.491 64.079 2.491 38.01 0 74.759-4.057 110.488-19.372a90.378 90.378 0 0 0 34.952-27.69c12.037-16.02 16.555-34.516 13.065-53.488-5.664-30.772-35.102-53.306-45.77-60.572zM248.645 158.32c0-45.184 32.949-65.951 63.562-66.126h.381c16.891 0 33 6.392 44.236 17.567a54.284 54.284 0 0 1 16.088 39.368 62.079 62.079 0 0 1-62.012 62.007v.115c-17.378.054-29.874-3.695-37.315-11.235-11.68-11.833-19.54-26.645-25.025-41.7zM43.677 344.2c2-19.081 19.184-40.542 43.452-41.943 3.639-.21 7.654-.757 11.905-1.337 1.384-.189 2.789-.38 4.223-.567a8.106 8.106 0 0 0 2.192-.141l.279-.042a5.959 5.959 0 0 0 1.373-.29q.876-.1 1.769-.194C255 284.343 274.334 264 275.864 255.966a6 6 0 0 0-11.486-3.3c-1.436 1.923-18.766 20.6-156.76 35.088-1.348.14-2.656.293-3.934.45a9.382 9.382 0 0 1-6.227-6.969c-1.25-5.547-2-14.027-1.6-18.148 5.169-53.99 37.18-97.23 63.124-124 26.2-27.034 52.882-43.84 62.568-47.551.895 3.661 1.791 9.324 2.722 15.217 4.253 26.888 11.37 71.891 40.782 101.69 15.1 15.3 42.722 18.71 84.447 10.42 24.735-4.913 39.206-2.154 48.382 9.226 8.686 10.774 10.8 23.5 6.29 37.838-6.957 22.1-63.345 58.679-131.165 85.092-57.254 22.3-112.526 34.1-156.612 34.1-17.012 0-32.367-1.76-45.515-5.353-19.114-5.216-29.028-18.181-27.203-35.566zm13.448 132.959c-21.969-2.459-35.838-10.921-41.219-25.151-6.421-16.981 1.088-38.395 6.746-44.638 10.135-11.184 22.965-19.449 28.889-22.958a59.547 59.547 0 0 0 16.171 6.935c14.356 3.922 30.69 5.885 48.867 5.884a326.3 326.3 0 0 0 51.319-4.425c34.311-5.494 72.161-16.076 109.459-30.6 34.328-13.37 66.84-29.645 91.546-45.824 16.674-10.92 37.174-26.672 44.8-42.146C440.74 278.18 453.961 294.5 453 322.815c-.364 10.682-2.528 17.488-8.9 28.012-12.839 21.188-43.537 61.227-104.878 91.317-40.157 19.694-86.782 32.119-139.422 37.256-.373.014-.746.023-1.119.038v.071q-64.827 6.197-141.556-2.35zm429.638-35.34a77.843 77.843 0 0 1-30.086 23.869c-52.836 22.649-109.333 19.384-169.147 15.93-6.838-.395-13.734-.792-20.675-1.154a374.075 374.075 0 0 0 77.645-27.546c64.088-31.437 96.337-73.561 109.856-95.872a92.882 92.882 0 0 0 5.417-10.115c11.015 8.017 33.469 26.955 37.85 50.778 2.905 15.811-.748 30.652-10.86 44.11z" fill="#ffffff" opacity="1" data-original="#000000"></path></g></svg>