<svg xmlns="http://www.w3.org/2000/svg" version="1.1" xmlns:xlink="http://www.w3.org/1999/xlink" width="512" height="512" x="0" y="0" viewBox="0 0 128 128" style="enable-background:new 0 0 512 512" xml:space="preserve" class=""><g><path d="M23.81 97.51a8.93 8.93 0 0 0 1.25 1.65 8.53 8.53 0 0 0 5.16 2.71h.5a5.8 5.8 0 0 0 5.71-6.23 8.48 8.48 0 0 0-2.7-5.16 10.93 10.93 0 0 0-3.12-2h-.05A36.34 36.34 0 0 0 21.7 86a1 1 0 0 0-.84.28 1 1 0 0 0-.29.84c.05.31.91 6.49 3.21 10.33Zm6.59 2.36A6.28 6.28 0 0 1 26.77 98l4.32-.08 1.44 1.44a3.49 3.49 0 0 1-2.13.51Zm4-4A3.54 3.54 0 0 1 34 98l-3.2-3.2.2-3.87a7.15 7.15 0 0 1 1.29 1 6.59 6.59 0 0 1 2.15 3.9ZM29.09 90l-.21 2.93-1.61-1.61a1 1 0 0 0-1.42 0 1 1 0 0 0 0 1.41L29.13 96l-3.87.08a29.39 29.39 0 0 1-2.48-7.83A34.16 34.16 0 0 1 29.09 90ZM49.15 121.72a5.78 5.78 0 0 0 5.78 5.78h18.29a5.78 5.78 0 0 0 5.78-5.78V77.4a1 1 0 0 0 .69-.94v-6.81a4.69 4.69 0 0 0-1.26-3.23c-7.29-7.77-8.55-33.67-8.56-33.93a1 1 0 0 0-2 .09c0 .34.15 3.05.55 6.86h-8.7c.41-3.81.54-6.52.56-6.86a1 1 0 0 0-2-.09c0 .26-1.27 26.16-8.56 33.93a4.69 4.69 0 0 0-1.26 3.23v6.81a1 1 0 0 0 .69.94ZM77 115.87H51.15V82H77Zm-3.78 9.63H54.93a3.78 3.78 0 0 1-3.78-3.78v-3.85H77v3.85a3.79 3.79 0 0 1-3.78 3.78Zm-4.57-84.06c.19 1.63.43 3.38.73 5.2H58.77c.29-1.82.53-3.57.73-5.2ZM50.46 69.65a2.69 2.69 0 0 1 .71-1.86c3.71-4 5.94-11.86 7.26-19.19a.93.93 0 0 0 .24 0h10.81a.85.85 0 0 0 .23 0C71 55.93 73.26 63.84 77 67.79a2.7 2.7 0 0 1 .72 1.86v5.81h-9.18a1 1 0 0 0 0 2H77V80H51.15v-2.54h12.76a1 1 0 1 0 0-2H50.46Z" fill="#ffffff" opacity="1" data-original="#000000" class=""></path><path d="M56.25 105.27a1 1 0 1 0 0 2H71.9a1 1 0 0 0 0-2ZM71.9 109.51H56.25a1 1 0 1 0 0 2H71.9a1 1 0 0 0 0-2ZM69.22 121.47H58.93a1 1 0 0 0 0 2h10.29a1 1 0 0 0 0-2ZM68.62 7.48a1 1 0 0 0 1-1v-5a1 1 0 0 0-1-1h-9.09a1 1 0 0 0-1 1V3h-8.48a1 1 0 0 0-1 1v3.32a1 1 0 0 0 2 0V5h7.48v1.48a1 1 0 0 0 1 1h3.54v8.64h-2.59a1 1 0 0 0 0 2h2.59v1.46h-3.63a1 1 0 0 0-1 1v9.26a1 1 0 0 0 1 1h9.26a1 1 0 0 0 1-1v-9.26a1 1 0 0 0-1-1h-3.63v-1.46h2.6a1 1 0 0 0 0-2h-2.6V7.48Zm-.92 21.36h-7.26v-7.26h7.26ZM60.53 2.5h7.09v3h-7.09ZM52.79 88.56a1 1 0 0 0 1.24.68 8.52 8.52 0 0 1 9.36 3.21 4.85 4.85 0 0 0-.4.28 5.68 5.68 0 1 0 4.32-1.28 6.05 6.05 0 0 0 .8-2.32 6.7 6.7 0 0 0-1.5-5 1 1 0 0 0-1.4-.18 7.08 7.08 0 0 0-2.45 3.31 1 1 0 0 0 .63 1.27 1 1 0 0 0 1.27-.63 4.6 4.6 0 0 1 1-1.62 4.37 4.37 0 0 1 .51 2.58A4.43 4.43 0 0 1 65 91.25a10.52 10.52 0 0 0-11.52-3.93 1 1 0 0 0-.69 1.24Zm17.52 8.5a3.67 3.67 0 1 1-6-2.8l.08-.06c.1.25.19.51.27.77a1 1 0 0 0 1 .72 1.55 1.55 0 0 0 .29 0 1 1 0 0 0 .67-1.25c-.1-.33-.21-.64-.34-1h.43a3.67 3.67 0 0 1 3.6 3.62ZM12.9 76.46a1 1 0 0 0 .68.94v44.32a5.79 5.79 0 0 0 5.79 5.78h18.28a5.79 5.79 0 0 0 5.79-5.78V77.4a1 1 0 0 0 .68-.94v-6.81a4.68 4.68 0 0 0-1.25-3.23c-7.3-7.77-8.55-33.67-8.56-33.93a1 1 0 0 0-1.05-1 1 1 0 0 0-.95 1c0 .34.14 3.05.55 6.86h-8.7c.4-3.81.54-6.52.55-6.86a1 1 0 0 0-.95-1 1 1 0 0 0-1.05 1c0 .26-1.26 26.16-8.56 33.93a4.68 4.68 0 0 0-1.25 3.23Zm28.54 39.41H15.58V82h25.86Zm-3.79 9.63H19.37a3.79 3.79 0 0 1-3.79-3.78v-3.85h25.86v3.85a3.79 3.79 0 0 1-3.79 3.78Zm-4.56-84.06c.19 1.63.43 3.38.73 5.2H23.2c.3-1.82.54-3.57.73-5.2ZM14.9 69.65a2.69 2.69 0 0 1 .71-1.86c3.71-4 5.94-11.86 7.26-19.19a.93.93 0 0 0 .23 0h10.82a.93.93 0 0 0 .23 0c1.32 7.33 3.55 15.24 7.26 19.19a2.69 2.69 0 0 1 .71 1.86v5.81H33a1 1 0 0 0 0 2h8.47V80H15.58v-2.54h12.76a1 1 0 1 0 0-2H14.9Z" fill="#ffffff" opacity="1" data-original="#000000" class=""></path><path d="M20.69 107.27h15.64a1 1 0 0 0 0-2H20.69a1 1 0 1 0 0 2ZM36.33 109.51H20.69a1 1 0 0 0 0 2h15.64a1 1 0 0 0 0-2ZM33.65 121.47H23.37a1 1 0 0 0 0 2h10.28a1 1 0 1 0 0-2ZM13.67 4v3.32a1 1 0 1 0 2 0V5H23v1.48a1 1 0 0 0 1 1h3.55v8.64h-2.63a1 1 0 0 0 0 2h2.59v1.46h-3.63a1 1 0 0 0-1 1v9.26a1 1 0 0 0 1 1h9.26a1 1 0 0 0 1-1v-9.26a1 1 0 0 0-1-1h-3.63v-1.46h2.59a1 1 0 0 0 0-2h-2.59V7.48h3.55a1 1 0 0 0 1-1v-5a1 1 0 0 0-1-1H24a1 1 0 0 0-1 1V3h-8.33a1 1 0 0 0-1 1Zm18.47 24.84h-7.26v-7.26h7.26ZM25 2.5h7.1v3H25ZM105.29 32.49a1 1 0 0 0-1.05-1 1 1 0 0 0-.95 1c0 .34.15 3.05.55 6.86h-8.7c.41-3.81.54-6.52.55-6.86a1 1 0 0 0-1-1 1 1 0 0 0-1 1c0 .26-1.26 26.16-8.56 33.93a4.68 4.68 0 0 0-1.25 3.23v6.81a1 1 0 0 0 .68.94v44.32a5.79 5.79 0 0 0 5.79 5.78h18.28a5.79 5.79 0 0 0 5.79-5.78V77.4a1 1 0 0 0 .68-.94v-6.81a4.68 4.68 0 0 0-1.25-3.23c-7.3-7.77-8.55-33.67-8.56-33.93ZM86.56 82h25.86v33.87H86.56Zm17.51-40.56c.19 1.63.43 3.38.73 5.2H94.18c.3-1.82.54-3.57.73-5.2ZM85.88 69.65a2.69 2.69 0 0 1 .71-1.86c3.71-4 5.94-11.86 7.26-19.19a.93.93 0 0 0 .23 0h10.82a.93.93 0 0 0 .23 0c1.32 7.33 3.55 15.24 7.26 19.19a2.69 2.69 0 0 1 .71 1.86v5.81H104a1 1 0 0 0 0 2h8.46V80h-25.9v-2.54h12.76a1 1 0 0 0 0-2H85.88Zm22.75 55.85H90.35a3.79 3.79 0 0 1-3.79-3.78v-3.85h25.86v3.85a3.79 3.79 0 0 1-3.79 3.78Z" fill="#ffffff" opacity="1" data-original="#000000" class=""></path><path d="M91.67 107.27h15.64a1 1 0 0 0 0-2H91.67a1 1 0 0 0 0 2ZM107.31 109.51H91.67a1 1 0 0 0 0 2h15.64a1 1 0 0 0 0-2ZM104.63 121.47H94.35a1 1 0 0 0 0 2h10.28a1 1 0 0 0 0-2ZM104 7.48a1 1 0 0 0 1-1v-5a1 1 0 0 0-1-1h-9.1a1 1 0 0 0-1 1V3h-8.34a1 1 0 0 0-1 1v3.32a1 1 0 0 0 2 0V5h7.38v1.48a1 1 0 0 0 1 1h3.55v8.64H95.9a1 1 0 0 0 0 2h2.59v1.46h-3.63a1 1 0 0 0-1 1v9.26a1 1 0 0 0 1 1h9.26a1 1 0 0 0 1-1v-9.26a1 1 0 0 0-1-1h-3.63v-1.46h2.59a1 1 0 0 0 0-2h-2.59V7.48Zm-.92 21.36h-7.22v-7.26h7.26ZM95.94 2.5H103v3h-7.1ZM98 101.83h.87a9.19 9.19 0 0 0 5-16.21 1 1 0 0 0-.74-.22 1 1 0 0 0-.67.36L92 98.3a1 1 0 0 0 .13 1.41 9.11 9.11 0 0 0 5.87 2.12Zm7.18-8.83a7.12 7.12 0 0 1-1.06 3.42l-3.61-3Zm-2.34 5a7.07 7.07 0 0 1-3.17 1.68L99.23 95Zm.48-10.13A7 7 0 0 1 105 91l-4.66.43Zm-6.08 7.32.43 4.67a7.18 7.18 0 0 1-3.43-1Z" fill="#ffffff" opacity="1" data-original="#000000" class=""></path></g></svg>