<svg xmlns="http://www.w3.org/2000/svg" version="1.1" xmlns:xlink="http://www.w3.org/1999/xlink" width="512" height="512" x="0" y="0" viewBox="0 0 64 64" style="enable-background:new 0 0 512 512" xml:space="preserve" class=""><g><path d="M17.316 34.554a.889.889 0 1 1 1.777-.008.889.889 0 0 1-1.777.008zm5.09.866a.889.889 0 1 0-.008-1.778.889.889 0 0 0 .009 1.778zm7.613-.751c0 1.06-.5 1.65-.93 1.96-.57.41-1.3.55-2.02.55-.05 4.62-3.03 8.37-6.72 8.39h-.02c-1.84 0-3.56-.91-4.84-2.56-1.21-1.55-1.89-3.6-1.93-5.77h-.03c-.71 0-1.44-.13-2-.53-.42-.3-.93-.89-.94-1.95v-.01c0-2.18 3.13-3.55 5-4.18l-1.06-1.34a.88.88 0 0 1 .14-1.25.89.89 0 0 1 1.25.14l1.14 1.44c.97-.67 2.07-1.03 3.21-1.03h.03c1.14 0 2.23.35 3.2 1l1.13-1.45a.888.888 0 0 1 1.4 1.09l-1.06 1.36c1.89.61 5.03 1.95 5.05 4.14zm-15.66-1.67c-1.15.57-1.99 1.22-1.99 1.75 0 .38.13.47.2.51.23.16.64.2 1.1.19.13-.86.36-1.69.69-2.45zm9.29 9.06c-.8-.62-2.05-1.05-3.32-.97-1.29 0-2.51.38-3.3.99.92 1.1 2.08 1.71 3.3 1.71h.02c1.27 0 2.42-.66 3.3-1.73zm1.65-5.04c-.01-1.84-.57-3.56-1.56-4.84-.94-1.21-2.16-1.87-3.44-1.87h-.02c-1.28 0-2.5.68-3.44 1.9-.98 1.29-1.52 3.02-1.51 4.86a8.5 8.5 0 0 0 .77 3.49c1.1-.78 2.61-1.24 4.22-1.25 1.65 0 3.16.44 4.26 1.22.46-1.02.72-2.22.72-3.51zm2.94-2.35c0-.39-.43-.81-1.08-1.22-.27-.17-.59-.34-.92-.5.33.76.57 1.58.7 2.43.46.02.88-.03 1.11-.19.06-.05.19-.14.19-.52zm9.47-30.88v.95a.886.886 0 1 1-1.77 0v-.95a.886.886 0 1 1 1.77 0zm-4.66 0v.95c0 .49-.4.89-.89.89s-.89-.4-.89-.89v-.95c0-.49.4-.89.89-.89s.89.4.89.89zm-4.67 0v.95c0 .49-.4.89-.89.89s-.89-.4-.89-.89v-.95c0-.49.4-.89.89-.89s.89.4.89.89zm-4.67 0v.95c0 .49-.4.89-.89.89s-.89-.4-.89-.89v-.95c0-.49.4-.89.89-.89s.89.4.89.89zm-4.67 0v.95c0 .49-.4.89-.89.89s-.89-.4-.89-.89v-.95c0-.49.4-.89.89-.89s.89.4.89.89zm36.939 51.119a3.869 3.869 0 0 1 0 5.47l-2.48 2.49c-.76.75-1.75 1.13-2.74 1.13s-1.98-.38-2.74-1.13l-4.35-4.36-4.36 4.36a3.869 3.869 0 0 1-5.47 0l-2.48-2.49a3.867 3.867 0 0 1-.56-4.75h-1.96c-.02 0-.03-.01-.05-.01H11.76c-2.69 0-4.87-2.19-4.87-4.88V20.009c0-.32.02-.62.08-.91.03-.28.1-.57.19-.83 0-.01.01-.02.02-.03.15-.49.37-.95.66-1.37l6.23-9.51V4.08C14.07 1.83 15.9 0 18.15 0h18.669c2.25 0 4.08 1.83 4.08 4.08v3.31l6.25 9.49c.31.47.54.95.68 1.46.07.22.14.52.18.8.07.28.07.59.07.86v18.198a3.872 3.872 0 0 1 5.42.04l2.479 2.49a3.869 3.869 0 0 1 0 5.47l-4.35 4.35zM39.398 10.18l-5.03 7.68c-.1.14-.17.28-.24.41s-.21.5-.22.55c-.11.27-.17.84-.17.84-.01.11-.01.22-.01.34v18.349l.11-.11a3.869 3.869 0 0 1 5.47 0l4.36 4.36 2.63-2.63v-19.97c0-.22 0-.39-.03-.54-.04-.24-.08-.43-.14-.6-.1-.37-.25-.67-.46-1l-5.66-8.6zM15.85 6.75h23.27V4.08a2.3 2.3 0 0 0-2.3-2.3h-18.67a2.3 2.3 0 0 0-2.3 2.3v2.67zM9.43 17.68h23.01c.01-.03.03-.06.05-.09.09-.19.19-.39.31-.58.03-.04.04-.08.07-.12l3.68-5.6 1.81-2.76h-22.93zm22.54 1.78H8.709c-.04.21-.05.37-.05.55v30.728c0 1.71 1.39 3.1 3.1 3.1h17.08c1.71 0 3.1-1.39 3.1-3.1v-3.96l-.58-.58a3.869 3.869 0 0 1 0-5.47l.58-.59V20.01c0-.1.01-.19.01-.29.01-.07.01-.15.02-.23v-.03zm22.749 36.708-4.98-4.99a.875.875 0 0 1 0-1.25l4.98-4.98a2.1 2.1 0 0 0 0-2.97l-2.48-2.48c-.82-.82-2.15-.82-2.96 0l-4.98 4.98c-.35.35-.91.35-1.26 0l-4.98-4.98a2.1 2.1 0 0 0-2.97 0l-2.48 2.48c-.81.82-.81 2.15 0 2.97l4.98 4.98c.35.34.35.91 0 1.25l-4.98 4.99c-.81.81-.81 2.14 0 2.96l2.48 2.48a2.1 2.1 0 0 0 2.97 0l4.98-4.98a.894.894 0 0 1 1.26 0l4.98 4.98c.81.82 2.14.82 2.96 0l2.48-2.48c.82-.82.82-2.15 0-2.96zm-19.01-5.62-1.98-1.98v2.17a4.8 4.8 0 0 1-.39 1.86c-.01.04-.03.07-.05.11-.07.17-.15.34-.24.51zm2-46.758v.95a.886.886 0 1 1-1.77 0v-.95a.886.886 0 1 1 1.77 0zm-4.66 0v.95c0 .49-.4.89-.89.89s-.89-.4-.89-.89v-.95c0-.49.4-.89.89-.89s.89.4.89.89zM10.59 34.759v-.01c0-2.18 3.13-3.55 5-4.18l-1.06-1.34a.88.88 0 0 1 .14-1.25.89.89 0 0 1 1.25.14l1.14 1.44c.97-.67 2.07-1.03 3.21-1.03h.03c1.14 0 2.23.35 3.2 1l1.13-1.45a.888.888 0 0 1 1.4 1.09l-1.06 1.36c1.889.61 5.029 1.95 5.049 4.14 0 1.06-.5 1.65-.93 1.96-.57.41-1.3.55-2.02.55-.05 4.62-3.03 8.37-6.72 8.39h-.02c-1.84 0-3.56-.91-4.84-2.56-1.21-1.55-1.89-3.6-1.93-5.77h-.03c-.71 0-1.44-.13-2-.53-.42-.3-.93-.89-.94-1.95zm13.06 7.3c-.8-.62-2.05-1.05-3.32-.97-1.29 0-2.51.38-3.3.99.92 1.1 2.08 1.71 3.3 1.71h.02c1.27 0 2.42-.66 3.3-1.73zm2.589-9.11c.33.76.57 1.58.7 2.43.46.02.88-.03 1.11-.19.06-.05.19-.14.19-.52 0-.39-.43-.81-1.08-1.22-.27-.17-.59-.34-.92-.5zm-10.91 4.12a8.5 8.5 0 0 0 .77 3.49c1.1-.78 2.61-1.24 4.22-1.25 1.65 0 3.16.44 4.26 1.22.46-1.02.72-2.22.72-3.51-.01-1.84-.57-3.56-1.56-4.84-.94-1.21-2.16-1.87-3.44-1.87h-.02c-1.28 0-2.5.68-3.44 1.9-.98 1.29-1.52 3.02-1.51 4.86zm-2.96-2.32c0 .38.13.47.2.51.23.16.64.2 1.1.19.13-.86.36-1.69.69-2.45-1.15.57-1.99 1.22-1.99 1.75zm16.01-30.96v.95c0 .49-.4.89-.89.89s-.89-.4-.89-.89v-.95c0-.49.4-.89.89-.89s.89.4.89.89zm-4.67 0v.95c0 .49-.4.89-.89.89s-.89-.4-.89-.89v-.95c0-.49.4-.89.89-.89s.89.4.89.89zm-4.67 0v.95c0 .49-.4.89-.89.89s-.89-.4-.89-.89v-.95c0-.49.4-.89.89-.89s.89.4.89.89zm4.67 0v.95c0 .49-.4.89-.89.89s-.89-.4-.89-.89v-.95c0-.49.4-.89.89-.89s.89.4.89.89zm4.67 0v.95c0 .49-.4.89-.89.89s-.89-.4-.89-.89v-.95c0-.49.4-.89.89-.89s.89.4.89.89zm-9.34 0v.95c0 .49-.4.89-.89.89s-.89-.4-.89-.89v-.95c0-.49.4-.89.89-.89s.89.4.89.89zm14.01 0v.95c0 .49-.4.89-.89.89s-.89-.4-.89-.89v-.95c0-.49.4-.89.89-.89s.89.4.89.89zm4.66 0v.95a.886.886 0 1 1-1.77 0v-.95a.886.886 0 1 1 1.77 0zm-7.69 30.88c0 1.06-.5 1.65-.93 1.96-.57.41-1.3.55-2.02.55-.05 4.62-3.03 8.37-6.72 8.39h-.02c-1.84 0-3.56-.91-4.84-2.56-1.21-1.55-1.89-3.6-1.93-5.77h-.03c-.71 0-1.44-.13-2-.53-.42-.3-.93-.89-.94-1.95v-.01c0-2.18 3.13-3.55 5-4.18l-1.06-1.34a.88.88 0 0 1 .14-1.25.89.89 0 0 1 1.25.14l1.14 1.44c.97-.67 2.07-1.03 3.21-1.03h.03c1.14 0 2.23.35 3.2 1l1.13-1.45a.888.888 0 0 1 1.4 1.09l-1.06 1.36c1.89.61 5.03 1.95 5.05 4.14zm-15.66-1.67c-1.15.57-1.99 1.22-1.99 1.75 0 .38.13.47.2.51.23.16.64.2 1.1.19.13-.86.36-1.69.69-2.45zm9.29 9.06c-.8-.62-2.05-1.05-3.32-.97-1.29 0-2.51.38-3.3.99.92 1.1 2.08 1.71 3.3 1.71h.02c1.27 0 2.42-.66 3.3-1.73zm1.65-5.04c-.01-1.84-.57-3.56-1.56-4.84-.94-1.21-2.16-1.87-3.44-1.87h-.02c-1.28 0-2.5.68-3.44 1.9-.98 1.29-1.52 3.02-1.51 4.86a8.5 8.5 0 0 0 .77 3.49c1.1-.78 2.61-1.24 4.22-1.25 1.65 0 3.16.44 4.26 1.22.46-1.02.72-2.22.72-3.51zm2.94-2.35c0-.39-.43-.81-1.08-1.22-.27-.17-.59-.34-.92-.5.33.76.57 1.58.7 2.43.46.02.88-.03 1.11-.19.06-.05.19-.14.19-.52zm-1.04-21.4c-.2 1.07-.81 2.03-1.63 2.72-.82.68-1.86 1.1-2.94 1.1s-2.04-.42-2.68-1.21c-.65-.78-.91-1.85-.7-2.94.41-2.15 2.42-3.83 4.57-3.83 1.09 0 2.04.43 2.69 1.21.65.79.9 1.86.69 2.95zm-1.7-.74c0-.41-.12-.78-.36-1.07-.31-.37-.77-.57-1.32-.57-1.28 0-2.58 1.09-2.82 2.38-.11.57 0 1.1.32 1.48.3.37.77.57 1.31.57 1.29 0 2.58-1.09 2.83-2.38.02-.14.04-.27.04-.41z" fill="#ffffff" opacity="1" data-original="#000000" class=""></path></g></svg>